<svg width="34" height="34" viewBox="0 0 34 34" fill="none" xmlns="http://www.w3.org/2000/svg">
<path d="M11.05 2.83333H22.95C27.4834 2.83333 31.1667 6.51667 31.1667 11.05V22.95C31.1667 25.1292 30.301 27.2191 28.7601 28.7601C27.2192 30.301 25.1292 31.1667 22.95 31.1667H11.05C6.51671 31.1667 2.83337 27.4833 2.83337 22.95V11.05C2.83337 8.87081 3.69906 6.78086 5.23998 5.23994C6.7809 3.69902 8.87085 2.83333 11.05 2.83333ZM10.7667 5.66667C9.4141 5.66667 8.1169 6.20399 7.16046 7.16042C6.20403 8.11686 5.66671 9.41406 5.66671 10.7667V23.2333C5.66671 26.0525 7.94754 28.3333 10.7667 28.3333H23.2334C24.586 28.3333 25.8832 27.796 26.8396 26.8396C27.7961 25.8831 28.3334 24.5859 28.3334 23.2333V10.7667C28.3334 7.9475 26.0525 5.66667 23.2334 5.66667H10.7667ZM24.4375 7.79167C24.9072 7.79167 25.3576 7.97824 25.6897 8.31033C26.0218 8.64243 26.2084 9.09285 26.2084 9.5625C26.2084 10.0322 26.0218 10.4826 25.6897 10.8147C25.3576 11.1468 24.9072 11.3333 24.4375 11.3333C23.9679 11.3333 23.5175 11.1468 23.1854 10.8147C22.8533 10.4826 22.6667 10.0322 22.6667 9.5625C22.6667 9.09285 22.8533 8.64243 23.1854 8.31033C23.5175 7.97824 23.9679 7.79167 24.4375 7.79167ZM17 9.91667C18.8787 9.91667 20.6803 10.6629 22.0087 11.9913C23.3371 13.3197 24.0834 15.1214 24.0834 17C24.0834 18.8786 23.3371 20.6803 22.0087 22.0087C20.6803 23.3371 18.8787 24.0833 17 24.0833C15.1214 24.0833 13.3198 23.3371 11.9914 22.0087C10.663 20.6803 9.91671 18.8786 9.91671 17C9.91671 15.1214 10.663 13.3197 11.9914 11.9913C13.3198 10.6629 15.1214 9.91667 17 9.91667ZM17 12.75C15.8729 12.75 14.7919 13.1978 13.9948 13.9948C13.1978 14.7918 12.75 15.8728 12.75 17C12.75 18.1272 13.1978 19.2082 13.9948 20.0052C14.7919 20.8022 15.8729 21.25 17 21.25C18.1272 21.25 19.2082 20.8022 20.0052 20.0052C20.8023 19.2082 21.25 18.1272 21.25 17C21.25 15.8728 20.8023 14.7918 20.0052 13.9948C19.2082 13.1978 18.1272 12.75 17 12.75Z" fill="white"/>
</svg>
